<?xml version="1.0" encoding="utf-8"?>
<!-- Generator: Adobe Illustrator 23.0.3, SVG Export Plug-In . SVG Version: 6.00 Build 0)  -->
<svg version="1.1" id="Layer_1" xmlns="http://www.w3.org/2000/svg" xmlns:xlink="http://www.w3.org/1999/xlink" x="0px" y="0px"
	 viewBox="0 0 91.98 106.47" style="enable-background:new 0 0 91.98 106.47;" xml:space="preserve">
<path fill='#f2f2f2' d="M1.77,5.07c0-1.99,0.81-3.17,1.62-4.17C1.03,2.86,0,4.92,0,10.55v4.73v2.25c0,3.28,6.81,15.55,21.18,15.55h0.85v-3.97v-1.46
	v-7.43h-0.39C9.33,20.22,1.77,12.23,1.77,5.07z"/>
<polygon fill='#f2f2f2' points="91.98,106.47 18.71,106.47 18.71,104.47 89.98,104.47 89.98,17.22 22.03,17.22 22.03,15.22 91.98,15.22 "/>
<path fill='#f2f2f2' d="M0,71.53v18.38c0,3.28,6.81,16.55,21.18,16.55h0.85V87.08h-0.85C6.81,87.08,0,74.81,0,71.53z"/>
<path fill='#f2f2f2' d="M21.18,36.63C6.81,36.63,0,24.35,0,21.08v46.91c0,3.28,6.81,15.55,21.18,15.55h0.85V56.01v-1.08v-18.3H21.18z"/>
<path fill='#f2f2f2' d="M58.44,73.64H36.68V34.6h22.46v38.23c0,0,9.1,8.52,18.2,14.24c0-3.24,0-54.47,0-54.47H34.68V89c0,0,36.59,0,40.57,0
	C69.98,83.54,58.44,73.64,58.44,73.64z"/>
<path fill='#f2f2f2' d="M77.03,0L61.34,0l-3.97,17.21H90l0.47-2.02c-8.86-0.18-15.32-4.03-17.15-7.84c-1.02-2.11-0.54-4.08,1.34-5.52L77.03,0z"/>
<path fill='#f2f2f2' d="M65.52,0L10.65,0c-0.02,0-0.1,0-0.24,0C9.58,0,6.88,0.12,5.2,1.72C4.29,2.58,3.83,3.71,3.83,5.07
	c0,4.95,5.03,12.15,18.2,12.15h43.49V0z"/>
</svg>
